<svg width="50" height="50" viewBox="0 0 50 50" fill="none" xmlns="http://www.w3.org/2000/svg">
<circle cx="25" cy="25" r="25" fill="#A0A0A0"/>
<path d="M30.0907 11.4764C30.5125 11.8749 30.7495 12.4153 30.7495 12.9788C30.7495 13.5423 30.5125 14.0827 30.0907 14.4812L18.9532 24.9999L30.0907 35.5187C30.5006 35.9194 30.7274 36.4562 30.7222 37.0134C30.7171 37.5706 30.4805 38.1035 30.0633 38.4975C29.6462 38.8915 29.0818 39.115 28.4919 39.1199C27.9019 39.1247 27.3336 38.9105 26.9092 38.5234L14.181 26.5023C13.7592 26.1038 13.5222 25.5634 13.5222 24.9999C13.5222 24.4364 13.7592 23.896 14.181 23.4975L26.9092 11.4764C27.3312 11.078 27.9034 10.8542 28.5 10.8542C29.0966 10.8542 29.6688 11.078 30.0907 11.4764Z" fill="#464646"/>
</svg>
