<svg width="50" height="50" viewBox="0 0 50 50" fill="none" xmlns="http://www.w3.org/2000/svg">
<g opacity="0.8">
<circle cx="25" cy="25" r="25" transform="rotate(-180 25 25)" fill="#A0A0A0"/>
<path d="M19.9093 38.5236C19.4875 38.1251 19.2505 37.5847 19.2505 37.0212C19.2505 36.4577 19.4875 35.9173 19.9093 35.5188L31.0468 25.0001L19.9093 14.4813C19.4994 14.0806 19.2726 13.5438 19.2778 12.9866C19.2829 12.4294 19.5195 11.8965 19.9367 11.5025C20.3538 11.1085 20.9182 10.885 21.5081 10.8801C22.0981 10.8753 22.6664 11.0895 23.0908 11.4766L35.819 23.4977C36.2408 23.8962 36.4778 24.4366 36.4778 25.0001C36.4778 25.5636 36.2408 26.104 35.819 26.5025L23.0908 38.5236C22.6688 38.922 22.0966 39.1458 21.5 39.1458C20.9034 39.1458 20.3312 38.922 19.9093 38.5236Z" fill="#464646"/>
</g>
</svg>
